<?xml version="1.0" standalone="no"?><!DOCTYPE svg PUBLIC "-//W3C//DTD SVG 1.1//EN" "http://www.w3.org/Graphics/SVG/1.1/DTD/svg11.dtd"><svg t="1742880849005" class="icon" viewBox="0 0 1024 1024" version="1.1" xmlns="http://www.w3.org/2000/svg" p-id="13207" xmlns:xlink="http://www.w3.org/1999/xlink" width="200" height="200"><path d="M0 0.000768h1023.999232v1023.999232H0z" fill="#D8D8D8" fill-opacity="0" p-id="13208"></path><path d="M246.873415 305.254939c0.5504-10.547192 4.607997-17.996787 10.879992-21.606384L620.671534 74.803912c-6.758395 3.891197-10.931192 12.223991-10.931191 24.089582v100.607924L246.809415 408.320462v-100.582325z" fill="#8996B7" p-id="13209"></path><path d="M246.143815 263.61657c9.727993-5.606396 23.167983-4.787196 38.015972 3.750397 29.695978 17.087987 53.75996 58.623956 53.75996 92.799931l362.930927-208.844643c0-34.175974-24.063982-75.724743-53.759959-92.799931-14.835189-8.550394-28.287979-9.343993-38.003172-3.763197L246.143815 263.61657z m91.775932 559.385181V360.166898l362.930927-208.844643V614.144307c0 24.243182 17.087987 53.75996 38.169572 65.881551 10.534392 6.054395 20.083185 6.630395 26.982379 2.662398L403.071698 891.545699c-6.911995 3.967997-16.447988 3.391997-26.99518-2.662398-21.068784-12.134391-38.156771-41.625569-38.156771-65.88155z" fill="#CFD7EC" p-id="13210"></path><path d="M430.655677 777.664185L793.599405 568.806741v98.713526c0 17.343987-6.118395 29.529578-15.999988 35.212774L414.694089 911.577684c9.868793-5.683196 15.974388-17.868787 15.974388-35.199973v-98.713526z" fill="#B9C4DF" p-id="13211"></path><path d="M414.246089 768.217792l16.409588 9.446393L793.599405 568.806741l-16.422388-9.433593z" fill="#DEE6F7" p-id="13212"></path><path d="M284.159787 286.259753c-20.620785-11.865591-37.350372-2.252798-37.350372 21.491184V408.320462L230.399827 398.899669v-100.607925c0-34.163174 24.063982-47.999964 53.75996-30.924777 29.695978 17.087987 53.75996 58.623956 53.75996 92.799931v462.822053c0 24.268782 17.087987 53.75996 38.156771 65.89435 21.081584 12.121591 38.169571 2.303998 38.169571-21.964783v-98.700726l16.409588 9.446393v98.700726c0 34.687974-24.435182 48.755163-54.579159 31.411176-30.143977-17.343987-54.579159-59.519955-54.579159-94.220729V350.720505c0-23.731182-16.716787-52.607961-37.337572-64.460752z" fill="#B4BED4" p-id="13213"></path><path d="M390.399707 343.93651L633.599525 204.800614v30.988777l-243.199818 139.135896zM390.399707 447.232433l243.199818-139.135896v30.975977l-243.199818 139.135895zM390.399707 550.528355l243.199818-139.135896v30.975977l-243.199818 139.135896zM390.399707 653.811478l124.927907-77.439942v30.975976L390.399707 684.800254z" fill="#FFFFFF" opacity=".7" p-id="13214"></path><path d="M827.00738 556.313951c0 73.868745-53.32476 163.711877-119.103911 200.652649C642.124318 793.907373 588.799558 763.955395 588.799558 690.07385S642.124318 526.361973 707.903469 489.421201C773.68262 452.480429 827.00738 482.432406 827.00738 556.313951z" fill="#1C4FA3" opacity=".2" p-id="13215"></path><path d="M865.279351 530.30437c-21.798384-14.847989-53.32476-14.156789-88.383934 5.529596-65.779151 36.940772-119.103911 126.783905-119.10391 200.66545 0 34.483174 11.622391 59.391955 30.719977 72.409545l-37.759972-25.72798c-19.097586-12.99199-30.719977-37.913572-30.719977-72.409546 0-73.881545 53.31196-163.711877 119.091111-200.65265 35.071974-19.699185 66.58555-20.377585 88.383933-5.542395l37.759972 25.72798z" fill="#3282E2" p-id="13216"></path><path d="M895.999328 602.726716c0 73.881545-53.32476 163.711877-119.103911 200.652649-65.779151 36.940772-119.103911 6.988795-119.10391-66.879949 0-73.881545 53.32476-163.711877 119.10391-200.66545 65.791951-36.940772 119.103911-6.988795 119.103911 66.89275z" fill="#53ABFF" p-id="13217"></path><path d="M829.247378 698.893044l-37.375972-14.732789-12.59519-8.575994 37.375972 14.732789zM770.239422 599.117119v109.337518L757.644232 699.878643V590.541125z" fill="#BECAD1" p-id="13218"></path><path d="M791.871406 586.957128l-21.631984 12.159991L757.644232 590.541125 779.276216 578.381134z" fill="#F4FBFF" p-id="13219"></path><path d="M814.015389 727.782622l-43.775967-19.327985V599.104319l21.631984-12.159991v97.215927l37.375972 14.732789z" fill="#E8F2F6" p-id="13220"></path></svg>