<svg width="50" height="50" viewBox="0 0 50 50" fill="none" xmlns="http://www.w3.org/2000/svg">
<g clip-path="url(#clip0_1_8732)">
<path d="M19.23 48.08H4.25V2.25H40.08V16.52" stroke="#7B8E9B" stroke-width="2.5" stroke-miterlimit="10" stroke-linecap="round" stroke-linejoin="round"/>
<path d="M11.55 13.24H30.14" stroke="#7B8E9B" stroke-width="2.5" stroke-miterlimit="10" stroke-linecap="round" stroke-linejoin="round"/>
<path d="M11.55 21.25H30.14" stroke="#7B8E9B" stroke-width="2.5" stroke-miterlimit="10" stroke-linecap="round" stroke-linejoin="round"/>
<path d="M34.04 28.77C34.99 27.82 36.31 27.23 37.76 27.23C40.67 27.23 43.03 29.59 43.03 32.5C43.03 35.41 40.67 37.77 37.76 37.77C36.35 37.77 35.06 37.21 34.12 36.31" stroke="#C8161D" stroke-width="2.5" stroke-miterlimit="10" stroke-linecap="round" stroke-linejoin="round"/>
<path d="M34.0901 38.51C35.2001 38.03 36.4501 37.76 37.7701 37.76C42.3701 37.76 46.1001 41.03 46.1001 45.07" stroke="#C8161D" stroke-width="2.5" stroke-miterlimit="10" stroke-linecap="round" stroke-linejoin="round"/>
<path d="M38.8299 47.36C37.7299 47.36 36.8299 46.46 36.8299 45.36C36.8299 42.43 33.9899 40.05 30.4999 40.05C27.0099 40.05 24.1699 42.43 24.1699 45.36C24.1699 46.46 23.2699 47.36 22.1699 47.36C21.0699 47.36 20.1699 46.46 20.1699 45.36C20.1699 42.1 22.0899 39.08 25.1499 37.4C23.9199 36.07 23.2299 34.33 23.2299 32.49C23.2299 28.48 26.4899 25.22 30.4999 25.22C34.5099 25.22 37.7599 28.48 37.7599 32.49C37.7599 34.33 37.0699 36.07 35.8399 37.4C38.8999 39.08 40.8199 42.1 40.8199 45.36C40.8299 46.46 39.9299 47.36 38.8299 47.36ZM30.4999 29.23C28.6999 29.23 27.2299 30.69 27.2299 32.5C27.2299 34.3 28.6899 35.77 30.4999 35.77C32.2999 35.77 33.7599 34.31 33.7599 32.5C33.7599 30.69 32.2999 29.23 30.4999 29.23Z" fill="#C8161D"/>
<path d="M30.4999 25.98C34.0899 25.98 37.0099 28.9 37.0099 32.5C37.0099 34.57 36.0399 36.41 34.5299 37.61C37.7999 38.97 40.0799 41.93 40.0799 45.37C40.0799 46.06 39.5199 46.62 38.8299 46.62C38.1399 46.62 37.5799 46.06 37.5799 45.37C37.5799 42.03 34.3999 39.31 30.4999 39.31C26.5999 39.31 23.4199 42.03 23.4199 45.37C23.4199 46.06 22.8599 46.62 22.1699 46.62C21.4799 46.62 20.9199 46.06 20.9199 45.37C20.9199 41.94 23.1999 38.98 26.4699 37.61C24.9599 36.42 23.9899 34.57 23.9899 32.5C23.9799 28.9 26.8999 25.98 30.4999 25.98ZM30.4999 36.51C32.7099 36.51 34.5099 34.71 34.5099 32.49C34.5099 30.28 32.7099 28.47 30.4999 28.47C28.2899 28.47 26.4799 30.27 26.4799 32.49C26.4799 34.71 28.2799 36.51 30.4999 36.51ZM30.4999 24.48C26.0799 24.48 22.4799 28.08 22.4799 32.5C22.4799 34.22 23.0299 35.86 24.0199 37.21C21.1699 39.08 19.4199 42.11 19.4199 45.36C19.4199 46.88 20.6499 48.11 22.1699 48.11C23.6899 48.11 24.9199 46.88 24.9199 45.36C24.9199 42.84 27.4199 40.8 30.4999 40.8C33.5799 40.8 36.0799 42.85 36.0799 45.36C36.0799 46.88 37.3099 48.11 38.8299 48.11C40.3499 48.11 41.5799 46.88 41.5799 45.36C41.5799 42.11 39.8299 39.08 36.9799 37.21C37.9699 35.86 38.5199 34.22 38.5199 32.5C38.5099 28.07 34.9199 24.48 30.4999 24.48ZM30.4999 35.01C29.1099 35.01 27.9799 33.88 27.9799 32.49C27.9799 31.1 29.1099 29.97 30.4999 29.97C31.8899 29.97 33.0099 31.1 33.0099 32.49C33.0099 33.88 31.8799 35.01 30.4999 35.01Z" fill="white"/>
</g>
<defs>
<clipPath id="clip0_1_8732">
<rect width="44.34" height="48.33" fill="white" transform="translate(3 1)"/>
</clipPath>
</defs>
</svg>
