  <svg
                width="18" height="18" viewBox="0 0 18 18" fill="none"
                xmlns="http://www.w3.org/2000/svg"
              >
                <g clip-path="url(#clip0_600_343)">
                  <circle cx="9" cy="9" r="9" fill="white" />
                  <circle cx="9" cy="9" r="8.5" stroke="#7B8E9B" stroke-opacity="0.4" />
                  <path
                    d="M7.55 7.22H10.17V4.29H11.15V7.22H13.63V8.16H11.15V13.55H10.17V8.16H7.55V7.22ZM5.73 4.38C6.38 4.87 6.93 5.36 7.38 5.86L6.73 6.52C6.33 6.05 5.78 5.55 5.07 5.03L5.73 4.38ZM4.41 7.28H6.72V11.54C7.04 11.28 7.37 10.98 7.72 10.65L7.97 11.62C7.33 12.22 6.64 12.76 5.91 13.23L5.55 12.38C5.72 12.24 5.81 12.07 5.81 11.87V8.19H4.41V7.28Z"
                    fill="#C8161D"
                  />
                </g>
                <defs>
                  <clipPath id="clip0_600_343">
                    <rect width="18" height="18" fill="white" />
                  </clipPath>
                </defs>
              </svg>