<?xml version="1.0" standalone="no"?><!DOCTYPE svg PUBLIC "-//W3C//DTD SVG 1.1//EN" "http://www.w3.org/Graphics/SVG/1.1/DTD/svg11.dtd"><svg t="1725275265594" class="icon" viewBox="0 0 1024 1024" version="1.1" xmlns="http://www.w3.org/2000/svg" p-id="20174" xmlns:xlink="http://www.w3.org/1999/xlink" width="200" height="200"><path d="M804.02963 669.392593l-195.318519 208.592592c-7.585185 9.481481-18.962963 13.274074-32.237037 13.274074H523.377778c-17.066667 0-30.340741-13.274074-30.340741-30.34074v-53.096297c0-11.377778 3.792593-22.755556 13.274074-30.340741L701.62963 580.266667l102.4 89.125926z m75.851851-104.296297c-1.896296-11.377778-7.585185-20.859259-17.066666-28.444444l-37.925926-28.444445c-17.066667-13.274074-41.718519-11.377778-56.888889 3.792593l-36.02963 37.925926 100.503704 89.125926 34.133333-36.02963 3.792593-3.792592c7.585185-11.377778 9.481481-22.755556 9.481481-34.133334zM682.666667 132.740741h-455.111111c-32.237037 0-56.888889 24.651852-56.888889 56.888889v587.851851c0 32.237037 24.651852 56.888889 56.888889 56.888889H436.148148v-18.962963l284.444445-303.407407h18.962963V189.62963c0-32.237037-24.651852-56.888889-56.888889-56.888889zM512 549.925926H303.407407c-11.377778 0-18.962963-7.585185-18.962963-18.962963s7.585185-18.962963 18.962963-18.962963H512c11.377778 0 18.962963 7.585185 18.962963 18.962963s-7.585185 18.962963-18.962963 18.962963z m-227.555556-132.740741c0-11.377778 7.585185-18.962963 18.962963-18.962963h132.740741c11.377778 0 18.962963 7.585185 18.962963 18.962963s-7.585185 18.962963-18.962963 18.962963h-132.740741c-11.377778 0-18.962963-7.585185-18.962963-18.962963z m322.370371-94.814815H303.407407c-11.377778 0-18.962963-7.585185-18.962963-18.962963s7.585185-18.962963 18.962963-18.962963h303.407408c11.377778 0 18.962963 7.585185 18.962963 18.962963s-7.585185 18.962963-18.962963 18.962963z" fill="#FF9008" p-id="20175"></path></svg>