<?xml version="1.0" standalone="no"?><!DOCTYPE svg PUBLIC "-//W3C//DTD SVG 1.1//EN" "http://www.w3.org/Graphics/SVG/1.1/DTD/svg11.dtd"><svg t="1735020686260" class="icon" viewBox="0 0 1024 1024" version="1.1" xmlns="http://www.w3.org/2000/svg" p-id="8030" xmlns:xlink="http://www.w3.org/1999/xlink" width="200" height="200"><path d="M992 640H896V32a32 32 0 0 0-32-32h-512a32 32 0 0 0-32 32V64H160a32 32 0 0 0-32 32V640H32a32 32 0 0 0-32 32v320a32 32 0 0 0 32 32h960a32 32 0 0 0 32-32v-320a32 32 0 0 0-32-32zM384 64h448v576H608a32 32 0 0 0-32 32V768H448v-96a32 32 0 0 0-32-32H384V64zM192 128h128v512H192z m768 832H64v-256h320v96a32 32 0 0 0 32 32h192a32 32 0 0 0 32-32V704h320z" p-id="8031"></path><path d="M480 192h256a32 32 0 0 0 0-64h-256a32 32 0 0 0 0 64zM480 320h256a32 32 0 0 0 0-64h-256a32 32 0 0 0 0 64zM480 448h256a32 32 0 0 0 0-64h-256a32 32 0 0 0 0 64zM480 576h256a32 32 0 0 0 0-64h-256a32 32 0 0 0 0 64z" p-id="8032"></path></svg>