<?xml version="1.0" standalone="no"?><!DOCTYPE svg PUBLIC "-//W3C//DTD SVG 1.1//EN" "http://www.w3.org/Graphics/SVG/1.1/DTD/svg11.dtd"><svg t="1725275208815" class="icon" viewBox="0 0 1024 1024" version="1.1" xmlns="http://www.w3.org/2000/svg" p-id="17788" xmlns:xlink="http://www.w3.org/1999/xlink" width="200" height="200"><path d="M878 245.08H750.14V193.2a7.43 7.43 0 0 0-7.41-7.41h-51.88a7.43 7.43 0 0 0-7.41 7.41v51.88h-137.1v-51.89a7.42 7.42 0 0 0-7.4-7.4h-51.88a7.43 7.43 0 0 0-7.41 7.41v51.88h-137.1V193.2a7.43 7.43 0 0 0-7.41-7.41h-51.87a7.43 7.43 0 0 0-7.41 7.41v51.88H148a50 50 0 0 0-50 50v492.85a50 50 0 0 0 50 50h730a50 50 0 0 0 50-50V295.08a50 50 0 0 0-50-50zM431.48 676.31a6 6 0 0 1-6 6H252.22a6 6 0 0 1-6-6V629a6 6 0 0 1 6-6h173.26a6 6 0 0 1 6 6z m0-126a6 6 0 0 1-6 6H252.22a6 6 0 0 1-6-6V503a6 6 0 0 1 6-6h173.26a6 6 0 0 1 6 6z m346.91-86L625.55 676.19a14.74 14.74 0 0 1-23.9 0L495.86 529.65a7.44 7.44 0 0 1 6-11.77h50.86a14.9 14.9 0 0 1 12 6.11l48.91 67.72 96-133.11a14.66 14.66 0 0 1 12-6.12h50.76a7.52 7.52 0 0 1 6 11.86z" fill="#FC5454" p-id="17789"></path></svg>