<svg width="50" height="50" viewBox="0 0 50 50" fill="none" xmlns="http://www.w3.org/2000/svg">
<g clip-path="url(#clip0_169_6937)">
<path d="M11.5498 13.24H30.1398" stroke="#7B8E9B" stroke-width="2.5" stroke-miterlimit="10" stroke-linecap="round" stroke-linejoin="round"/>
<path d="M11.5498 21.25H30.1398" stroke="#7B8E9B" stroke-width="2.5" stroke-miterlimit="10" stroke-linecap="round" stroke-linejoin="round"/>
<path d="M19.23 48.08H4.25V2.25H40.08V16.52" stroke="#7B8E9B" stroke-width="2.5" stroke-miterlimit="10" stroke-linecap="round" stroke-linejoin="round"/>
<path d="M11.5498 13.24H30.1398" stroke="#7B8E9B" stroke-width="2.5" stroke-miterlimit="10" stroke-linecap="round" stroke-linejoin="round"/>
<path d="M11.5498 21.25H30.1398" stroke="#7B8E9B" stroke-width="2.5" stroke-miterlimit="10" stroke-linecap="round" stroke-linejoin="round"/>
<path d="M35.3101 46.6001C40.971 46.6001 45.5601 42.011 45.5601 36.3501C45.5601 30.6892 40.971 26.1001 35.3101 26.1001C29.6491 26.1001 25.0601 30.6892 25.0601 36.3501C25.0601 42.011 29.6491 46.6001 35.3101 46.6001Z" stroke="#C8161D" stroke-width="2.3" stroke-miterlimit="10" stroke-linecap="round" stroke-linejoin="round"/>
<path d="M35.3101 30.3201L37.1501 34.0401L41.2701 34.6401L38.2901 37.5501L38.9901 41.6401L35.3101 39.7101L31.6301 41.6401L32.3301 37.5501L29.3501 34.6401L33.4701 34.0401L35.3101 30.3201Z" stroke="#C8161D" stroke-width="2.3" stroke-miterlimit="10" stroke-linecap="round" stroke-linejoin="round"/>
</g>
<defs>
<clipPath id="clip0_169_6937">
<rect width="43.81" height="48.33" fill="white" transform="translate(3 1)"/>
</clipPath>
</defs>
</svg>
