<svg width="50" height="50" viewBox="0 0 50 50" fill="none" xmlns="http://www.w3.org/2000/svg">
<g clip-path="url(#clip0_169_6957)">
<path d="M27.7099 29.3499C28.8599 28.2399 30.2499 27.4099 31.7699 26.9099C32.5299 27.9499 33.7499 28.6299 35.1399 28.6299C36.5199 28.6299 37.7499 27.9499 38.5099 26.9099C40.0299 27.4099 41.4099 28.2399 42.5699 29.3499C42.0799 30.5099 42.1199 31.8699 42.7999 33.0499C43.4399 34.1599 44.5199 34.8699 45.6999 35.0699C45.8299 35.7499 45.8999 36.4299 45.8999 37.1199C45.8999 38.0799 45.7699 39.0099 45.5399 39.8999C44.4299 40.1399 43.4199 40.8299 42.8099 41.8899C42.2499 42.8499 42.1099 43.9899 42.3999 45.0599C41.1599 46.1999 39.6699 47.0199 38.0399 47.4799C37.2699 46.7299 36.2299 46.3099 35.1499 46.3099C34.0699 46.3099 33.0299 46.7299 32.2599 47.4799C30.6399 47.0299 29.1499 46.1999 27.8999 45.0599C28.1899 43.9899 28.0399 42.8499 27.4899 41.8899C26.8799 40.8299 25.8699 40.1399 24.7599 39.8999C24.5199 38.9899 24.3999 38.0599 24.3999 37.1199C24.3999 36.4199 24.4699 35.7299 24.5999 35.0699C25.7699 34.8699 26.8499 34.1599 27.4999 33.0499C28.1599 31.8699 28.1999 30.4999 27.7099 29.3499ZM35.1399 42.3199C38.0099 42.3199 40.3399 39.9899 40.3399 37.1199C40.3399 34.2499 38.0099 31.9199 35.1399 31.9199C32.2699 31.9199 29.9399 34.2499 29.9399 37.1199C29.9399 39.9899 32.2699 42.3199 35.1399 42.3199Z" stroke="#C8161D" stroke-width="2.5" stroke-miterlimit="10" stroke-linecap="round" stroke-linejoin="round"/>
<path d="M18.23 48.08H3.25V2.25H39.08V16.52" stroke="#7B8E9B" stroke-width="2.5" stroke-miterlimit="10" stroke-linecap="round" stroke-linejoin="round"/>
<path d="M12.5498 13.24H31.1398" stroke="#7B8E9B" stroke-width="2.5" stroke-miterlimit="10" stroke-linecap="round" stroke-linejoin="round"/>
<path d="M12.5498 21.25H31.1398" stroke="#7B8E9B" stroke-width="2.5" stroke-miterlimit="10" stroke-linecap="round" stroke-linejoin="round"/>
</g>
<defs>
<clipPath id="clip0_169_6957">
<rect width="45.14" height="48.33" fill="white" transform="translate(2 1)"/>
</clipPath>
</defs>
</svg>
