<svg width="50" height="50" viewBox="0 0 50 50" fill="none" xmlns="http://www.w3.org/2000/svg">
<g clip-path="url(#clip0_1_8748)">
<path d="M19.23 48.08H4.25V2.25H40.08V16.52" stroke="#7B8E9B" stroke-width="2.5" stroke-miterlimit="10" stroke-linecap="round" stroke-linejoin="round"/>
<path d="M11.55 13.24H30.14" stroke="#7B8E9B" stroke-width="2.5" stroke-miterlimit="10" stroke-linecap="round" stroke-linejoin="round"/>
<path d="M11.55 21.25H30.14" stroke="#7B8E9B" stroke-width="2.5" stroke-miterlimit="10" stroke-linecap="round" stroke-linejoin="round"/>
<path d="M34.22 47.9299C40.1625 47.9299 44.98 43.1125 44.98 37.1699C44.98 31.2273 40.1625 26.4099 34.22 26.4099C28.2774 26.4099 23.46 31.2273 23.46 37.1699C23.46 43.1125 28.2774 47.9299 34.22 47.9299Z" stroke="#C8161D" stroke-width="2.5" stroke-miterlimit="10" stroke-linecap="round" stroke-linejoin="round"/>
<path d="M34.2199 42.4701C37.147 42.4701 39.5199 40.0972 39.5199 37.1701C39.5199 34.243 37.147 31.8701 34.2199 31.8701C31.2928 31.8701 28.9199 34.243 28.9199 37.1701C28.9199 40.0972 31.2928 42.4701 34.2199 42.4701Z" stroke="#C8161D" stroke-width="2.5" stroke-miterlimit="10" stroke-linecap="round" stroke-linejoin="round"/>
<path d="M34.3601 39.0299C33.8301 39.0299 33.3201 38.8199 32.9501 38.4399C32.5801 38.0599 32.3601 37.5599 32.3601 37.0299C32.3601 36.4999 32.5701 35.9899 32.9501 35.6199L43.2801 25.29C43.6601 24.91 44.1601 24.7 44.6901 24.7C45.2201 24.7 45.7301 24.91 46.1001 25.29C46.4801 25.67 46.6901 26.17 46.6901 26.7C46.6901 27.23 46.4801 27.74 46.1001 28.11L35.7701 38.4399C35.3901 38.8199 34.8901 39.0299 34.3601 39.0299Z" fill="#C8161D"/>
<path d="M44.6901 25.45C45.0101 25.45 45.3301 25.57 45.5701 25.82C46.0601 26.31 46.0601 27.1 45.5701 27.59L35.2401 37.91C35.0001 38.15 34.6801 38.2799 34.3601 38.2799C34.0401 38.2799 33.7201 38.16 33.4801 37.91C32.9901 37.42 32.9901 36.6299 33.4801 36.1399L43.8101 25.8099C44.0501 25.5699 44.3701 25.45 44.6901 25.45ZM44.6901 23.95C43.9601 23.95 43.2701 24.24 42.7501 24.76L32.4101 35.08C31.8901 35.6 31.6001 36.29 31.6001 37.02C31.6001 37.75 31.8901 38.4399 32.4101 38.9599C32.9301 39.4799 33.6201 39.77 34.3501 39.77C35.0801 39.77 35.7701 39.4799 36.2901 38.9599L46.6201 28.6299C47.1401 28.1099 47.4301 27.42 47.4301 26.69C47.4301 25.96 47.1401 25.27 46.6201 24.75C46.1101 24.23 45.4201 23.95 44.6901 23.95Z" fill="white"/>
</g>
<defs>
<clipPath id="clip0_1_8748">
<rect width="44.44" height="48.33" fill="white" transform="translate(3 1)"/>
</clipPath>
</defs>
</svg>
