<?xml version="1.0" standalone="no"?><!DOCTYPE svg PUBLIC "-//W3C//DTD SVG 1.1//EN" "http://www.w3.org/Graphics/SVG/1.1/DTD/svg11.dtd"><svg t="1734670261486" class="icon" viewBox="0 0 1024 1024" version="1.1" xmlns="http://www.w3.org/2000/svg" p-id="5919" xmlns:xlink="http://www.w3.org/1999/xlink" width="200" height="200"><path d="M511.2 0.6C228.955 0.6 0.1 229.455 0.1 511.7s228.855 511.1 511.1 511.1 511.1-228.855 511.1-511.1C1022.2 229.455 793.445 0.6 511.2 0.6z m191.563 750.653c-80.485-33.193-99.68-44.091-99.68-44.091v-75.985c22.995-25.895 35.692-59.289 35.792-93.882 18.497 5.1 24.895-21.696 26.195-39.592 1.3-17.897 10.898-69.587-12.098-63.888 4.9-27.594 7.2-55.589 7-83.683-7.1-75.486-73.287-131.375-148.872-125.876-75.085-0.6-139.373 53.59-151.37 127.775-0.4 27.995 1.7 56.09 6.398 83.684-22.995-4.5-12.797 47.89-12.097 63.887 0.6 15.997 7.698 44.692 26.195 39.593 1 35.293 15.097 68.986 39.592 94.581v75.985c-32.294 16.797-65.587 31.794-99.68 44.692-72.186 29.994-59.389 11.497-104.18 31.294-147.471-159.77-140.773-407.92 14.997-559.491 155.77-151.67 403.921-151.67 559.69 0 155.77 151.67 162.369 399.722 14.998 559.49-44.092-18.496-31.294-4.499-102.88-34.493z m0 0" p-id="5920"></path></svg>