<?xml version="1.0" standalone="no"?><!DOCTYPE svg PUBLIC "-//W3C//DTD SVG 1.1//EN" "http://www.w3.org/Graphics/SVG/1.1/DTD/svg11.dtd"><svg t="1739607562291" class="icon" viewBox="0 0 1024 1024" version="1.1" xmlns="http://www.w3.org/2000/svg" p-id="9937" xmlns:xlink="http://www.w3.org/1999/xlink" width="200" height="200"><path d="M149.333333 842.666667c-17.642667 0-32-14.357333-32-32V213.333333c0-17.642667 14.357333-32 32-32h725.333334c17.642667 0 32 14.357333 32 32v597.333334c0 17.642667-14.357333 32-32 32H149.333333z" fill="#FFF6F6" p-id="9938"></path><path d="M874.666667 192c11.754667 0 21.333333 9.578667 21.333333 21.333333v597.333334c0 11.754667-9.578667 21.333333-21.333333 21.333333H149.333333c-11.754667 0-21.333333-9.578667-21.333333-21.333333V213.333333c0-11.754667 9.578667-21.333333 21.333333-21.333333h725.333334m0-21.333333H149.333333a42.666667 42.666667 0 0 0-42.666666 42.666666v597.333334a42.666667 42.666667 0 0 0 42.666666 42.666666h725.333334a42.666667 42.666667 0 0 0 42.666666-42.666666V213.333333a42.666667 42.666667 0 0 0-42.666666-42.666666z" fill="#FF5251" p-id="9939"></path><path d="M341.333333 597.333333c0 47.125333 42.986667 85.333333 96 85.333334s96-38.208 96-85.333334v-170.666666c0-23.530667 23.936-42.666667 53.333334-42.666667s53.333333 19.136 53.333333 42.666667v170.666666h-42.666667l64 85.333334 64-85.333334h-42.666666v-170.666666c0-47.125333-42.986667-85.333333-96-85.333334S490.666667 379.541333 490.666667 426.666667v170.666666c0 23.530667-23.936 42.666667-53.333334 42.666667s-53.333333-19.136-53.333333-42.666667v-170.666666h42.666667l-64-85.333334-64 85.333334h42.666666v170.666666z" fill="#FF5251" p-id="9940"></path></svg>