<?xml version="1.0" standalone="no"?><!DOCTYPE svg PUBLIC "-//W3C//DTD SVG 1.1//EN" "http://www.w3.org/Graphics/SVG/1.1/DTD/svg11.dtd"><svg t="1735020573475" class="icon" viewBox="0 0 1024 1024" version="1.1" xmlns="http://www.w3.org/2000/svg" p-id="6986" xmlns:xlink="http://www.w3.org/1999/xlink" width="200" height="200"><path d="M642.688 690.773333a126.677333 126.677333 0 1 1 50.645333 0v53.205334h101.333334v50.688h-253.354667v-50.688h101.376v-53.162667z m25.301333-48.128a76.032 76.032 0 1 0 0-152.021333 76.032 76.032 0 0 0 0 152.021333z" p-id="6987"></path><path d="M186.666667 136.021333v709.333334H407.893333V896H135.978667V85.333333h709.333333v259.157334h-50.645333V136.021333H186.666667zM845.354667 845.354667V896H490.666667v-50.688h354.688z" p-id="6988"></path><path d="M277.333333 256h341.333334v42.666667h-341.333334V256zM618.666667 405.333333h-341.333334v42.666667h341.333334v-42.666667z" p-id="6989"></path></svg>