<?xml version="1.0" standalone="no"?><!DOCTYPE svg PUBLIC "-//W3C//DTD SVG 1.1//EN" "http://www.w3.org/Graphics/SVG/1.1/DTD/svg11.dtd"><svg t="1735040631603" class="icon" viewBox="0 0 1024 1024" version="1.1" xmlns="http://www.w3.org/2000/svg" p-id="7061" xmlns:xlink="http://www.w3.org/1999/xlink" width="200" height="200"><path d="M896 0v1024H64V0h832zM256 768a64 64 0 1 0 0 128 64 64 0 0 0 0-128z m512 0H384v128h384v-128zM256 512a64 64 0 1 0 0 128 64 64 0 0 0 0-128z m512 0H384v128h384V512zM256 256a64 64 0 1 0 0 128 64 64 0 0 0 0-128z m512 0H384v128h384V256z" p-id="7062"></path></svg>