<?xml version="1.0" standalone="no"?><!DOCTYPE svg PUBLIC "-//W3C//DTD SVG 1.1//EN" "http://www.w3.org/Graphics/SVG/1.1/DTD/svg11.dtd"><svg t="1725347766830" class="icon" viewBox="0 0 1024 1024" version="1.1" xmlns="http://www.w3.org/2000/svg" p-id="9578" xmlns:xlink="http://www.w3.org/1999/xlink" width="200" height="200"><path d="M799.165217 574.330435c-124.66087 0-224.834783 100.173913-224.834782 224.834782S674.504348 1024 799.165217 1024 1024 923.826087 1024 799.165217s-100.173913-224.834783-224.834783-224.834782z m71.234783 311.652174c-6.678261 2.226087-15.582609 0-20.034783-4.452174-15.582609-15.582609-73.46087-75.686957-89.043478-91.269565-4.452174-4.452174-4.452174-8.904348-4.452174-13.356522v-89.043478c0-13.356522 8.904348-22.26087 20.034783-22.26087s24.486957 8.904348 24.486956 22.26087v75.686956c0 2.226087 2.226087 4.452174 2.226087 6.678261 11.130435 11.130435 64.556522 69.008696 75.686957 80.13913s6.678261 31.165217-8.904348 35.617392z m-645.565217-698.991305c26.713043 0 48.973913-20.034783 48.973913-46.747826V46.747826c0-26.713043-22.26087-46.747826-48.973913-46.747826S175.86087 20.034783 175.86087 46.747826v93.495652c0 24.486957 22.26087 46.747826 48.973913 46.747826z m478.608695 0c26.713043 0 48.973913-20.034783 48.973913-46.747826V46.747826c0-26.713043-22.26087-46.747826-48.973913-46.747826-26.713043 0-48.973913 20.034783-48.973913 46.747826v93.495652c2.226087 24.486957 22.26087 46.747826 48.973913 46.747826z m-240.417391 0c26.713043 0 48.973913-22.26087 48.973913-46.747826V46.747826C512 20.034783 489.73913 0 463.026087 0c-26.713043 0-48.973913 20.034783-48.973913 46.747826v93.495652c2.226087 24.486957 22.26087 46.747826 48.973913 46.747826z" p-id="9579" fill="#515151"></path><path d="M525.356522 837.008696H166.956522c-22.26087 0-40.069565-17.808696-40.069565-37.843479 0-22.26087 17.808696-37.843478 40.069565-37.843478h356.173913c4.452174-40.069565 20.034783-75.686957 40.069565-109.078261H175.86087c-26.713043 0-48.973913-20.034783-48.973913-46.747826 0-26.713043 22.26087-46.747826 48.973913-46.747826h494.191304c35.617391-17.808696 73.46087-26.713043 115.756522-26.713043 53.426087 0 100.173913 15.582609 142.469565 42.295652V140.243478c0-26.713043-22.26087-46.747826-48.973913-46.747826h-80.139131v46.747826c0 51.2-42.295652 93.495652-95.721739 93.495652s-95.721739-42.295652-95.721739-93.495652V93.495652h-48.973913v46.747826c0 51.2-42.295652 93.495652-95.721739 93.495652s-95.721739-42.295652-95.721739-93.495652V93.495652h-48.973913v46.747826c0 51.2-42.295652 93.495652-95.721739 93.495652S126.886957 191.443478 126.886957 140.243478V93.495652H48.973913C22.26087 93.495652 0 113.530435 0 140.243478v805.843479c0 26.713043 22.26087 46.747826 48.973913 46.747826h563.2c-46.747826-40.069565-75.686957-93.495652-86.817391-155.826087zM175.86087 356.173913h576.556521c26.713043 0 48.973913 20.034783 48.973913 46.747826s-22.26087 46.747826-48.973913 46.747826H175.86087c-26.713043 0-48.973913-20.034783-48.973913-46.747826s22.26087-46.747826 48.973913-46.747826z" p-id="9580" fill="#515151"></path></svg>